<?xml version="1.0" encoding="iso-8859-1"?>
<!-- Generator: Adobe Illustrator 17.0.0, SVG Export Plug-In . SVG Version: 6.00 Build 0)  -->
<!DOCTYPE svg PUBLIC "-//W3C//DTD SVG 1.1//EN" "http://www.w3.org/Graphics/SVG/1.1/DTD/svg11.dtd">
<svg version="1.1" id="Ebene_1" xmlns="http://www.w3.org/2000/svg" xmlns:xlink="http://www.w3.org/1999/xlink" x="0px" y="0px"
	 width="413.242px" height="100px" viewBox="0 0 413.242 100" style="enable-background:new 0 0 413.242 100;" xml:space="preserve"
	>
<g>
	<path style="fill:#3366FF;" d="M0,100h17.994l10.79-24.359h34.909L74.557,100h17.999L46.278,0L0,100z M59.103,62.113H33.417
		l12.861-30.041L59.103,62.113z"/>
	<polygon style="fill:#3366FF;" points="119.48,5.28 103.513,5.28 103.513,100 157.097,100 157.097,85.662 119.48,85.662 	"/>
	<polygon style="fill:#3366FF;" points="215.692,5.28 149.659,5.28 149.659,20.031 174.557,20.031 174.557,100 190.656,100 
		190.656,20.031 215.692,20.031 	"/>
	<path style="fill:#3366FF;" d="M203.513,100h17.994l10.79-24.359h34.914L278.07,100h18.005L249.791,0L203.513,100z M262.616,62.113
		h-25.686l12.861-30.041L262.616,62.113z"/>
	<rect x="307.02" y="5.28" style="fill:#3366FF;" width="16.1" height="94.72"/>
	<path style="fill:#3366FF;" d="M393.894,100h19.348l-26.931-37.799c1.774-0.523,3.622-0.95,5.216-1.712
		c5.099-2.439,9.052-5.864,11.849-10.285c2.786-4.421,4.185-9.558,4.185-15.428c0-5.952-1.399-11.139-4.185-15.56
		c-2.797-4.416-6.75-7.846-11.849-10.285c-5.099-2.434-11.122-3.65-18.06-3.65h-13.258h-6.497h-9.47V100h15.967V64.139h9.849
		L393.894,100z M360.208,19.216h12.576c3.7,0,6.905,0.611,9.602,1.828c2.709,1.217,4.834,3.001,6.365,5.346
		c1.542,2.346,2.301,5.231,2.301,8.661c0,3.337-0.76,6.2-2.301,8.589c-1.531,2.39-3.656,4.196-6.365,5.412
		c-2.698,1.217-5.902,1.828-9.602,1.828h-12.576V19.216z"/>
</g>
</svg>
